<svg width="287" height="39" viewBox="0 0 287 39" fill="none" xmlns="http://www.w3.org/2000/svg">
<g clip-path="url(#clip0_1_4)">
<path d="M42.6723 14.5952H36.6548C36.2787 14.5952 36.0762 14.3865 36.0762 14.0249V10.9911C36.0762 10.6296 36.2787 10.4209 36.6548 10.4209H53.7707C54.1468 10.4209 54.3493 10.6296 54.3493 10.9911V14.0249C54.3493 14.3865 54.1468 14.5952 53.7707 14.5952H47.7532V28.0052C47.7532 28.3667 47.5253 28.5754 47.1746 28.5754H43.2473C42.8712 28.5754 42.6687 28.3667 42.6687 28.0052V14.5952H42.6723Z" fill="white"/>
<path d="M74.5933 14.5691V18.1732C74.5933 21.0803 73.3602 22.5823 70.3912 22.5823H70.3152L75.1466 28.0052C75.3491 28.24 75.2225 28.5754 74.9441 28.5754H69.9862C69.5088 28.5754 69.3063 28.471 69.0315 28.1356L64.7027 22.8432H61.1805V28.0052C61.1805 28.3667 60.9526 28.5754 60.5766 28.5754H56.6746C56.2985 28.5754 56.096 28.3667 56.096 28.0052V10.9911C56.096 10.6296 56.2985 10.4209 56.6746 10.4209H70.3912C73.3602 10.4209 74.5933 11.6657 74.5933 14.5728V14.5691ZM61.1769 18.6689H67.8236C69.2846 18.6689 69.5088 18.4341 69.5088 17.1892V16.0748C69.5088 14.83 69.281 14.5952 67.8236 14.5952H61.1769V18.6689Z" fill="white"/>
<path d="M91.0185 25.4931H82.5347L81.5764 28.035C81.4498 28.3965 81.2003 28.5791 80.7699 28.5791H76.6184C76.293 28.5791 76.1411 28.3182 76.2677 27.9828L83.1892 10.965C83.3158 10.6035 83.5653 10.4209 84.021 10.4209H89.7601C90.1868 10.4209 90.4146 10.6035 90.5665 10.965L97.4881 27.9828C97.6146 28.322 97.4628 28.5791 97.1626 28.5791H92.7833C92.3312 28.5791 92.1034 28.3965 91.9768 28.035L91.0185 25.4931ZM84.0716 21.4194H89.4599L86.7658 14.2597L84.0716 21.4194Z" fill="white"/>
<path d="M101.766 14.5952H95.7486C95.3725 14.5952 95.17 14.3865 95.17 14.0249V10.9911C95.17 10.6296 95.3725 10.4209 95.7486 10.4209H112.865C113.241 10.4209 113.443 10.6296 113.443 10.9911V14.0249C113.443 14.3865 113.241 14.5952 112.865 14.5952H106.847V28.0052C106.847 28.3667 106.619 28.5754 106.268 28.5754H102.341C101.965 28.5754 101.763 28.3667 101.763 28.0052V14.5952H101.766Z" fill="white"/>
<path d="M134.53 24.4272C134.53 27.3343 133.271 28.5791 130.328 28.5791H119.58C116.662 28.5791 115.353 27.3343 115.353 24.4272V14.5691C115.353 11.662 116.662 10.4171 119.58 10.4171H130.328C133.271 10.4171 134.53 11.662 134.53 14.5691V24.4272ZM129.445 16.2575C129.445 14.8561 129.167 14.5989 127.507 14.5989H122.372C120.737 14.5989 120.433 14.8598 120.433 16.2575V22.7425C120.433 24.1439 120.737 24.4011 122.372 24.4011H127.507C129.167 24.4011 129.445 24.1402 129.445 22.7425V16.2575Z" fill="white"/>
<path d="M155.313 14.5691V18.1732C155.313 21.0803 154.079 22.5823 151.11 22.5823H151.035L155.866 28.0052C156.068 28.24 155.942 28.5754 155.663 28.5754H150.705C150.228 28.5754 150.026 28.471 149.747 28.1356L145.418 22.8432H141.896V28.0052C141.896 28.3667 141.668 28.5754 141.292 28.5754H137.39C137.014 28.5754 136.812 28.3667 136.812 28.0052V10.9911C136.812 10.6296 137.014 10.4209 137.39 10.4209H151.107C154.076 10.4209 155.309 11.6657 155.309 14.5728L155.313 14.5691ZM141.896 18.6689H148.543C150.004 18.6689 150.228 18.4341 150.228 17.1892V16.0748C150.228 14.83 150 14.5952 148.543 14.5952H141.896V18.6689Z" fill="white"/>
<path d="M163.612 14.5952H157.595C157.218 14.5952 157.016 14.3865 157.016 14.0249V10.9911C157.016 10.6296 157.218 10.4209 157.595 10.4209H174.71C175.087 10.4209 175.289 10.6296 175.289 10.9911V14.0249C175.289 14.3865 175.087 14.5952 174.71 14.5952H168.693V28.0052C168.693 28.3667 168.465 28.5754 168.114 28.5754H164.187C163.811 28.5754 163.608 28.3667 163.608 28.0052V14.5952H163.612Z" fill="white"/>
<path d="M214.815 22.2245C215.191 22.2245 215.394 22.4332 215.394 22.7947V24.5054C215.394 27.5654 214.363 28.5791 211.268 28.5791H201.377C198.459 28.5791 197.15 27.3343 197.15 24.4272V14.5691C197.15 11.662 198.459 10.4171 201.377 10.4171H211.268C214.363 10.4171 215.394 11.4272 215.394 14.4908V16.2015C215.394 16.5631 215.191 16.7718 214.815 16.7718H211.04C210.664 16.7718 210.461 16.5631 210.461 16.2015V15.3965C210.461 14.8524 210.208 14.5915 209.629 14.5915H204.169C202.534 14.5915 202.23 14.8524 202.23 16.25V22.7351C202.23 24.1365 202.534 24.3936 204.169 24.3936H209.629C210.208 24.3936 210.461 24.1327 210.461 23.5886V22.7835C210.461 22.422 210.664 22.2133 211.04 22.2133H214.815V22.2245Z" fill="white"/>
<path d="M229.794 28.5791C229.392 28.5791 229.139 28.4487 228.987 28.1132L222.391 14.5728V28.0089C222.391 28.3704 222.163 28.5791 221.813 28.5791H218.29C217.914 28.5791 217.712 28.3704 217.712 28.0089V10.9911C217.712 10.6296 217.914 10.4209 218.29 10.4209H224.912C225.313 10.4209 225.566 10.5513 225.718 10.8868L232.314 24.4533V10.9911C232.314 10.6296 232.542 10.4209 232.918 10.4209H236.415C236.791 10.4209 236.994 10.6296 236.994 10.9911V28.0089C236.994 28.3704 236.791 28.5791 236.415 28.5791H229.794Z" fill="white"/>
<path d="M244.241 28.0089C244.241 28.3704 244.013 28.5791 243.637 28.5791H239.735C239.359 28.5791 239.156 28.3704 239.156 28.0089V10.9911C239.156 10.6296 239.359 10.4209 239.735 10.4209H243.637C244.013 10.4209 244.241 10.6296 244.241 10.9911V28.0089Z" fill="white"/>
<path d="M264.076 22.2245C264.452 22.2245 264.655 22.4332 264.655 22.7947V24.5054C264.655 27.5654 263.624 28.5791 260.529 28.5791H250.638C247.72 28.5791 246.411 27.3343 246.411 24.4272V14.5691C246.411 11.662 247.72 10.4171 250.638 10.4171H260.529C263.624 10.4171 264.655 11.4272 264.655 14.4908V16.2015C264.655 16.5631 264.452 16.7718 264.076 16.7718H260.301C259.925 16.7718 259.722 16.5631 259.722 16.2015V15.3965C259.722 14.8524 259.469 14.5915 258.891 14.5915H253.43C251.795 14.5915 251.492 14.8524 251.492 16.25V22.7351C251.492 24.1365 251.795 24.3936 253.43 24.3936H258.891C259.469 24.3936 259.722 24.1327 259.722 23.5886V22.7835C259.722 22.422 259.925 22.2133 260.301 22.2133H264.076V22.2245Z" fill="white"/>
<path d="M280.487 25.4931H272.003L271.049 28.035C270.922 28.3965 270.672 28.5791 270.242 28.5791H266.091C265.761 28.5791 265.613 28.3182 265.74 27.9828L272.661 10.965C272.788 10.6035 273.037 10.4209 273.493 10.4209H279.232C279.659 10.4209 279.887 10.6035 280.039 10.965L286.96 27.9828C287.087 28.322 286.935 28.5791 286.631 28.5791H282.252C281.8 28.5791 281.572 28.3965 281.445 28.035L280.491 25.4931H280.487ZM273.54 21.4194H278.928L276.234 14.2597L273.54 21.4194Z" fill="white"/>
<path d="M194.372 14.5952C194.748 14.5952 194.951 14.3865 194.951 14.0249V10.9911C194.951 10.6296 194.748 10.4209 194.372 10.4209H177.835C177.459 10.4209 177.256 10.6296 177.256 10.9911V28.0089C177.256 28.3704 177.459 28.5791 177.835 28.5791H194.372C194.748 28.5791 194.951 28.3704 194.951 28.0089V24.9751C194.951 24.6135 194.748 24.4048 194.372 24.4048H182.341V21.4232H192.409C192.759 21.4232 192.987 21.2144 192.987 20.8529V17.998C192.987 17.6365 192.759 17.4277 192.409 17.4277H182.341V14.5989H194.372V14.5952Z" fill="white"/>
<path d="M183.05 8.95242H185.711C186.17 8.95242 186.503 8.71388 186.785 8.4269L189.523 5.76205C189.805 5.49743 189.624 5.12845 189.317 5.12845H185.657C185.198 5.12845 184.916 5.3148 184.659 5.65396L182.818 8.3449C182.587 8.63562 182.742 8.95242 183.05 8.95242Z" fill="white"/>
<path d="M16.324 15.3443H0V20.8529H16.324V15.3443Z" fill="#FFCF00"/>
<path d="M16.3203 22.0307H10.9754V39H16.3203V22.0307Z" fill="#FFCF00"/>
<path d="M20.2115 0C19.1049 0.372706 18.378 1.28956 17.9513 2.02752C17.6294 2.58658 17.4595 3.22764 17.4595 3.87987V20.8716C23.1226 21.371 28.7532 24.4197 28.7532 24.4197C19.5605 11.8968 20.2115 0 20.2115 0Z" fill="#FFCF00"/>
</g>
<defs>
<clipPath id="clip0_1_4">
<rect width="287" height="39" fill="white"/>
</clipPath>
</defs>
</svg>
